<svg id="Component_16_1" data-name="Component 16 – 1" xmlns="http://www.w3.org/2000/svg" width="435" height="435" viewBox="0 0 435 435">
  <g id="Path_47" data-name="Path 47">
    <path d="M 217.5 433.5 C 202.8437194824219 433.5 188.1970520019531 432.0235595703125 173.9668884277344 429.1116027832031 C 160.0991058349609 426.2738952636719 146.4583892822266 422.03955078125 133.4234924316406 416.5262756347656 C 120.6249465942383 411.1129455566406 108.2806091308594 404.41259765625 96.73339080810547 396.6115112304688 C 85.29550170898438 388.8841552734375 74.53971862792969 380.0098876953125 64.76494598388672 370.2350463867188 C 54.9901123046875 360.4602661132812 46.1158332824707 349.7044982910156 38.38850021362305 338.2666015625 C 30.58738899230957 326.7193908691406 23.88705635070801 314.3750610351562 18.47372245788574 301.5765075683594 C 12.96044445037842 288.5416259765625 8.72611141204834 274.90087890625 5.888389110565186 261.0331115722656 C 2.976444482803345 246.8029479980469 1.5 232.1562805175781 1.5 217.5 C 1.5 202.8437194824219 2.976444482803345 188.1970520019531 5.888389110565186 173.9668884277344 C 8.72611141204834 160.0991058349609 12.96044445037842 146.4583892822266 18.47372245788574 133.4234924316406 C 23.88705635070801 120.6249465942383 30.58738899230957 108.2806091308594 38.38850021362305 96.73339080810547 C 46.1158332824707 85.29550170898438 54.9901123046875 74.53971862792969 64.76494598388672 64.76494598388672 C 74.53971862792969 54.9901123046875 85.29550170898438 46.1158332824707 96.73339080810547 38.38850021362305 C 108.2806091308594 30.58738899230957 120.6249465942383 23.88705635070801 133.4234924316406 18.47372245788574 C 146.4583892822266 12.96044445037842 160.0991058349609 8.72611141204834 173.9668884277344 5.888389110565186 C 188.1970520019531 2.976444482803345 202.8437194824219 1.5 217.5 1.5 C 237.8428955078125 1.5 257.9730529785156 4.324666500091553 277.3312072753906 9.895610809326172 C 296.0929565429688 15.29483318328857 314.05615234375 23.24677848815918 330.7220458984375 33.53061294555664 C 363.7550964355469 53.91394424438477 390.7745666503906 82.85216522216797 408.8593444824219 117.2167739868164 C 416.8013305664062 132.30810546875 422.927734375 148.366943359375 427.0682678222656 164.9472198486328 C 431.3360595703125 182.0367736816406 433.5 199.7181091308594 433.5 217.5 C 433.5 232.1562805175781 432.0235595703125 246.8029479980469 429.1116027832031 261.0331115722656 C 426.2738952636719 274.90087890625 422.03955078125 288.5416259765625 416.5262756347656 301.5765075683594 C 411.1129455566406 314.3750610351562 404.41259765625 326.7193908691406 396.6115112304688 338.2666015625 C 388.8841552734375 349.7044982910156 380.0098876953125 360.4602661132812 370.2350463867188 370.2350463867188 C 360.4602661132812 380.0098876953125 349.7044982910156 388.8841552734375 338.2666015625 396.6115112304688 C 326.7193908691406 404.41259765625 314.3750610351562 411.1129455566406 301.5765075683594 416.5262756347656 C 288.5416259765625 422.03955078125 274.90087890625 426.2738952636719 261.0331115722656 429.1116027832031 C 246.8029479980469 432.0235595703125 232.1562805175781 433.5 217.5 433.5 Z" stroke="none"/>
    <path d="M 217.5 3 C 202.9445037841797 3 188.3990020751953 4.466217041015625 174.2676086425781 7.357940673828125 C 160.496826171875 10.17584228515625 146.9515075683594 14.38055419921875 134.0078430175781 19.855224609375 C 121.2984924316406 25.2308349609375 109.0400695800781 31.88449096679688 97.5731201171875 39.63143920898438 C 86.21426391601562 47.30526733398438 75.53289794921875 56.1182861328125 65.82562255859375 65.82562255859375 C 56.1182861328125 75.53289794921875 47.30526733398438 86.21426391601562 39.63143920898438 97.5731201171875 C 31.88449096679688 109.0400695800781 25.2308349609375 121.2984924316406 19.855224609375 134.0078430175781 C 14.38055419921875 146.9515075683594 10.17584228515625 160.496826171875 7.357940673828125 174.2676086425781 C 4.466217041015625 188.3990020751953 3 202.9445037841797 3 217.5 C 3 232.0554962158203 4.466217041015625 246.6009979248047 7.357940673828125 260.7323913574219 C 10.17584228515625 274.5031127929688 14.38055419921875 288.0484619140625 19.855224609375 300.9921875 C 25.2308349609375 313.7015075683594 31.88449096679688 325.9598999023438 39.63143920898438 337.4268798828125 C 47.30526733398438 348.7856750488281 56.1182861328125 359.467041015625 65.82562255859375 369.1743774414062 C 75.53289794921875 378.8817138671875 86.21432495117188 387.6946716308594 97.5731201171875 395.3685607910156 C 109.0400695800781 403.1154479980469 121.2984924316406 409.7691650390625 134.0078430175781 415.144775390625 C 146.9515075683594 420.6194458007812 160.496826171875 424.8241577148438 174.2676086425781 427.6420593261719 C 188.3990020751953 430.5337829589844 202.9445037841797 432 217.5 432 C 232.0554962158203 432 246.6009979248047 430.5337829589844 260.7323913574219 427.6420593261719 C 274.5031127929688 424.8241577148438 288.0484619140625 420.6194458007812 300.9921875 415.144775390625 C 313.7015075683594 409.7691650390625 325.9598999023438 403.1154479980469 337.4268798828125 395.3685607910156 C 348.7856750488281 387.6946716308594 359.467041015625 378.8817138671875 369.1743774414062 369.1743774414062 C 378.8817138671875 359.467041015625 387.6946716308594 348.7856750488281 395.3685607910156 337.4268798828125 C 403.1154479980469 325.9598999023438 409.7691650390625 313.7015075683594 415.144775390625 300.9921875 C 420.6194458007812 288.0484619140625 424.8241577148438 274.5031127929688 427.6420593261719 260.7323913574219 C 430.5337829589844 246.6009979248047 432 232.0554962158203 432 217.5 C 432 199.8404998779297 429.8511047363281 182.2814483642578 425.6130065917969 165.3106689453125 C 421.5014343261719 148.8466796875 415.4181213378906 132.9005432128906 407.5318908691406 117.9153442382812 C 389.5719909667969 83.78805541992188 362.7392272949219 55.04965209960938 329.934326171875 34.80715942382812 C 313.3846740722656 24.59506225585938 295.5468139648438 16.69854736328125 276.9163818359375 11.33706665039062 C 257.6930541992188 5.80499267578125 237.7024993896484 3 217.5 3 M 217.5 0 C 301.1048278808594 0 373.6922302246094 47.1715087890625 410.1867065429688 116.5182189941406 C 426.000732421875 146.5677185058594 435 180.9829406738281 435 217.5 C 435 337.6218872070312 337.6218872070312 435 217.5 435 C 97.3780517578125 435 0 337.6218872070312 0 217.5 C 0 97.3780517578125 97.3780517578125 0 217.5 0 Z" stroke="none" fill="#5ff736"/>
  </g>
  <g id="Ellipse_74" data-name="Ellipse 74" transform="translate(38 37)" stroke="#5ff736" stroke-width="3">
    <circle cx="180" cy="180" r="180" stroke="none"/>
    <circle cx="180" cy="180" r="178.5" fill="none"/>
  </g>
  <g id="Ellipse_75" data-name="Ellipse 75" transform="translate(77 76)" stroke="#5ff736" stroke-width="3">
    <circle cx="142.5" cy="142.5" r="142.5" stroke="none"/>
    <circle cx="142.5" cy="142.5" r="141" fill="none"/>
  </g>
  <g id="Ellipse_76" data-name="Ellipse 76" transform="translate(115 113)" stroke="#5ff736" stroke-width="3">
    <circle cx="105" cy="105" r="105" stroke="none"/>
    <circle cx="105" cy="105" r="103.5" fill="none"/>
  </g>
  <g id="Path_48" data-name="Path 48" transform="translate(153 151)">
    <path d="M 67.5 132.5 C 58.72396087646484 132.5 50.21173858642578 130.7817535400391 42.1998405456543 127.3929977416992 C 38.34886169433594 125.7641830444336 34.6343994140625 123.7480010986328 31.15962028503418 121.4004974365234 C 27.71722030639648 119.0748596191406 24.48006057739258 116.403938293457 21.53805923461914 113.4619369506836 C 18.59605979919434 110.5199203491211 15.92514038085938 107.2827606201172 13.59949970245361 103.8403625488281 C 11.2519998550415 100.3656005859375 9.235819816589355 96.65113830566406 7.60699987411499 92.80016326904297 C 4.218239784240723 84.78823852539062 2.5 76.27603912353516 2.5 67.5 C 2.5 58.72396087646484 4.218239784240723 50.21173858642578 7.60699987411499 42.1998405456543 C 9.235819816589355 38.34886169433594 11.2519998550415 34.6343994140625 13.59949970245361 31.15962028503418 C 15.92514038085938 27.71722030639648 18.59605979919434 24.48006057739258 21.53805923461914 21.53805923461914 C 24.48006057739258 18.59605979919434 27.71722030639648 15.92514038085938 31.15962028503418 13.59949970245361 C 34.6343994140625 11.2519998550415 38.34886169433594 9.235819816589355 42.1998405456543 7.60699987411499 C 50.21173858642578 4.218239784240723 58.72396087646484 2.5 67.5 2.5 C 80.87904357910156 2.5 93.71131896972656 6.543159961700439 104.6095809936523 14.1923999786377 C 109.8902969360352 17.8988208770752 114.6019973754883 22.37451934814453 118.6137771606445 27.49518013000488 C 122.6688766479492 32.67111968994141 125.9456176757812 38.42676162719727 128.35302734375 44.60221862792969 C 129.6653747558594 47.96139907836914 130.6876831054688 51.59115982055664 131.3921661376953 55.39244079589844 C 132.1272583007812 59.35895919799805 132.5 63.43252182006836 132.5 67.5 C 132.5 76.27603912353516 130.7817535400391 84.78823852539062 127.3929977416992 92.80016326904297 C 125.7641830444336 96.65113830566406 123.7480010986328 100.3656005859375 121.4004974365234 103.8403625488281 C 119.0748596191406 107.2827606201172 116.403938293457 110.5199203491211 113.4619369506836 113.4619369506836 C 110.5199203491211 116.403938293457 107.2827606201172 119.0748596191406 103.8403625488281 121.4004974365234 C 100.3656005859375 123.7480010986328 96.65113830566406 125.7641830444336 92.80016326904297 127.3929977416992 C 84.78823852539062 130.7817535400391 76.27603912353516 132.5 67.5 132.5 Z" stroke="none"/>
    <path d="M 67.5 5 C 59.06034851074219 5 50.87580108642578 6.651809692382812 43.17371368408203 9.909500122070312 C 39.47141265869141 11.47545623779297 35.90015411376953 13.41390991210938 32.55915069580078 15.67106628417969 C 29.24858856201172 17.90763092041016 26.13532257080078 20.47632598876953 23.30582427978516 23.30582427978516 C 20.47632598876953 26.13532257080078 17.90763092041016 29.24858856201172 15.67106628417969 32.55915069580078 C 13.41390991210938 35.90015411376953 11.47545623779297 39.47141265869141 9.909500122070312 43.17371368408203 C 6.651809692382812 50.87580108642578 5 59.06034851074219 5 67.5 C 5 75.93965148925781 6.651809692382812 84.12417602539062 9.909500122070312 91.82627868652344 C 11.47545623779297 95.52858734130859 13.41390991210938 99.099853515625 15.67106628417969 102.4408493041992 C 17.90763092041016 105.7514114379883 20.47632598876953 108.8646697998047 23.30582427978516 111.6941757202148 C 26.13532257080078 114.5236511230469 29.24858856201172 117.0923690795898 32.55915069580078 119.3289337158203 C 35.90015411376953 121.5860900878906 39.47141265869141 123.524543762207 43.17371368408203 125.0904998779297 C 50.87580108642578 128.3481903076172 59.06034851074219 130 67.5 130 C 75.93965148925781 130 84.12417602539062 128.3481903076172 91.82627868652344 125.0904998779297 C 95.52858734130859 123.524543762207 99.099853515625 121.5860900878906 102.4408493041992 119.3289337158203 C 105.7513885498047 117.0923690795898 108.8646697998047 114.5236511230469 111.6941757202148 111.6941757202148 C 114.5236511230469 108.8646697998047 117.0923690795898 105.7513885498047 119.3289337158203 102.4408493041992 C 121.5860900878906 99.099853515625 123.524543762207 95.52858734130859 125.0904998779297 91.82627868652344 C 128.3481903076172 84.12417602539062 130 75.93965148925781 130 67.5 C 130 63.58495330810547 129.6413421630859 59.66464996337891 128.9340209960938 55.84797668457031 C 128.2582244873047 52.20147705078125 127.2795028686523 48.72452545166016 126.0237426757812 45.51023864746094 C 123.7052154541016 39.56271362304688 120.5500183105469 34.02030181884766 116.6458282470703 29.03697967529297 C 112.7856521606445 24.10982513427734 108.2528457641602 19.80387115478516 103.1733474731445 16.23867034912109 C 92.697998046875 8.886260986328125 80.36235046386719 5 67.5 5 M 67.5 0 C 96.13043212890625 0 120.5976333618164 17.82493591308594 130.6822814941406 43.69419860839844 C 133.3733673095703 50.58234405517578 135 58.85121917724609 135 67.5 C 135 104.7791976928711 104.7791976928711 135 67.5 135 C 30.22077941894531 135 0 104.7791976928711 0 67.5 C 0 30.22077941894531 30.22077941894531 0 67.5 0 Z" stroke="none" fill="#5ff736"/>
  </g>
  <circle id="Ellipse_78" data-name="Ellipse 78" cx="12" cy="12" r="12" transform="translate(206 103)" fill="#5ff736"/>
  <circle id="Ellipse_84" data-name="Ellipse 84" cx="12" cy="12" r="12" transform="translate(208 310)" fill="#5ff736"/>
  <circle id="Ellipse_79" data-name="Ellipse 79" cx="12" cy="12" r="12" transform="translate(206 64)" fill="#5ff736"/>
  <circle id="Ellipse_80" data-name="Ellipse 80" cx="12" cy="12" r="12" transform="translate(206 25)" fill="#5ff736"/>
  <circle id="Ellipse_88" data-name="Ellipse 88" cx="12" cy="12" r="12" transform="translate(208 349)" fill="#5ff736"/>
  <circle id="Ellipse_90" data-name="Ellipse 90" cx="12" cy="12" r="12" transform="translate(208 385)" fill="#5ff736"/>
  <circle id="Ellipse_81" data-name="Ellipse 81" cx="12" cy="12" r="12" transform="translate(65 207)" fill="#5ff736"/>
  <circle id="Ellipse_82" data-name="Ellipse 82" cx="12" cy="12" r="12" transform="translate(26 207)" fill="#5ff736"/>
  <circle id="Ellipse_87" data-name="Ellipse 87" cx="12" cy="12" r="12" transform="translate(350 206)" fill="#5ff736"/>
  <circle id="Ellipse_89" data-name="Ellipse 89" cx="12" cy="12" r="12" transform="translate(386 205)" fill="#5ff736"/>
  <circle id="Ellipse_77" data-name="Ellipse 77" cx="12" cy="12" r="12" transform="translate(106 107)" fill="#5ff736"/>
  <circle id="Ellipse_85" data-name="Ellipse 85" cx="12" cy="12" r="12" transform="translate(313 107)" fill="#5ff736"/>
  <circle id="Ellipse_83" data-name="Ellipse 83" cx="12" cy="12" r="12" transform="translate(106 305)" fill="#5ff736"/>
  <circle id="Ellipse_86" data-name="Ellipse 86" cx="12" cy="12" r="12" transform="translate(318 299)" fill="#5ff736"/>
  <text id="AI" transform="translate(219 242)" fill="#5ff736" font-size="70" font-family="Georgia-Bold, Georgia" font-weight="700" letter-spacing="0.01em"><tspan x="-42.494" y="0">AI</tspan></text>
</svg>
