<svg id="Component_18_1" data-name="Component 18 – 1" xmlns="http://www.w3.org/2000/svg" width="440" height="440" viewBox="0 0 440 440">
  <circle id="Ellipse_91" data-name="Ellipse 91" cx="220" cy="220" r="220"/>
  <g id="Component_17_2" data-name="Component 17 – 2" transform="translate(39 57)">
    <g id="Component_10_4" data-name="Component 10 – 4">
      <g id="Component_8_1" data-name="Component 8 – 1">
        <g id="Polygon_1" data-name="Polygon 1" transform="translate(92.5 2.5)">
          <path d="M 175.064697265625 48.5 L 1.935298442840576 48.5 L 88.5 0.5715211629867554 L 175.064697265625 48.5 Z" stroke="none"/>
          <path d="M 88.5 1.143054962158203 L 3.870620727539062 48 L 173.1293792724609 48 L 88.5 1.143054962158203 M 88.5 0 L 177 49 L 0 49 L 88.5 0 Z" stroke="none" fill="#020000"/>
        </g>
        <g id="Rectangle_4" data-name="Rectangle 4" transform="translate(92.5 51.5)" stroke="#020000" stroke-width="1">
          <rect width="177" height="72" stroke="none"/>
          <rect x="0.5" y="0.5" width="176" height="71" fill="none"/>
        </g>
        <g id="Polygon_2" data-name="Polygon 2" transform="translate(269.5 172.5) rotate(180)">
          <path d="M 175.064697265625 48.5 L 1.935298442840576 48.5 L 88.5 0.5715211629867554 L 175.064697265625 48.5 Z" stroke="none"/>
          <path d="M 88.5 1.143054962158203 L 3.870620727539062 48 L 173.1293792724609 48 L 88.5 1.143054962158203 M 88.5 0 L 177 49 L 0 49 L 88.5 0 Z" stroke="none" fill="#020000"/>
        </g>
        <g id="Polygon_3" data-name="Polygon 3" transform="translate(92.5 2.5)">
          <path d="M 175.064697265625 48.5 L 1.935298442840576 48.5 L 88.5 0.5715211629867554 L 175.064697265625 48.5 Z" stroke="none"/>
          <path d="M 88.5 1.143054962158203 L 3.870620727539062 48 L 173.1293792724609 48 L 88.5 1.143054962158203 M 88.5 0 L 177 49 L 0 49 L 88.5 0 Z" stroke="none" fill="#020000"/>
        </g>
        <g id="Rectangle_5" data-name="Rectangle 5" transform="translate(92.5 51.5)" stroke="#020000" stroke-width="1">
          <rect width="177" height="72" stroke="none"/>
          <rect x="0.5" y="0.5" width="176" height="71" fill="none"/>
        </g>
        <g id="Polygon_4" data-name="Polygon 4" transform="translate(269.5 172.5) rotate(180)">
          <path d="M 175.064697265625 48.5 L 1.935298442840576 48.5 L 88.5 0.5715211629867554 L 175.064697265625 48.5 Z" stroke="none"/>
          <path d="M 88.5 1.143054962158203 L 3.870620727539062 48 L 173.1293792724609 48 L 88.5 1.143054962158203 M 88.5 0 L 177 49 L 0 49 L 88.5 0 Z" stroke="none" fill="#020000"/>
        </g>
        <g id="Polygon_5" data-name="Polygon 5" transform="translate(92.5 2.5)">
          <path d="M 175.064697265625 48.5 L 1.935298442840576 48.5 L 88.5 0.5715211629867554 L 175.064697265625 48.5 Z" stroke="none"/>
          <path d="M 88.5 1.143054962158203 L 3.870620727539062 48 L 173.1293792724609 48 L 88.5 1.143054962158203 M 88.5 0 L 177 49 L 0 49 L 88.5 0 Z" stroke="none" fill="#020000"/>
        </g>
        <g id="Rectangle_6" data-name="Rectangle 6" transform="translate(92.5 51.5)" stroke="#020000" stroke-width="1">
          <rect width="177" height="72" stroke="none"/>
          <rect x="0.5" y="0.5" width="176" height="71" fill="none"/>
        </g>
        <g id="Polygon_6" data-name="Polygon 6" transform="translate(269.5 172.5) rotate(180)">
          <path d="M 175.064697265625 48.5 L 1.935298442840576 48.5 L 88.5 0.5715211629867554 L 175.064697265625 48.5 Z" stroke="none"/>
          <path d="M 88.5 1.143054962158203 L 3.870620727539062 48 L 173.1293792724609 48 L 88.5 1.143054962158203 M 88.5 0 L 177 49 L 0 49 L 88.5 0 Z" stroke="none" fill="#020000"/>
        </g>
        <g id="Polygon_7" data-name="Polygon 7" transform="translate(92.5 2.5)">
          <path d="M 175.064697265625 48.5 L 1.935298442840576 48.5 L 88.5 0.5715211629867554 L 175.064697265625 48.5 Z" stroke="none"/>
          <path d="M 88.5 1.143054962158203 L 3.870620727539062 48 L 173.1293792724609 48 L 88.5 1.143054962158203 M 88.5 0 L 177 49 L 0 49 L 88.5 0 Z" stroke="none" fill="#020000"/>
        </g>
        <g id="Rectangle_7" data-name="Rectangle 7" transform="translate(92.5 51.5)" stroke="#020000" stroke-width="1">
          <rect width="177" height="72" stroke="none"/>
          <rect x="0.5" y="0.5" width="176" height="71" fill="none"/>
        </g>
        <g id="Polygon_8" data-name="Polygon 8" transform="translate(269.5 172.5) rotate(180)">
          <path d="M 175.064697265625 48.5 L 1.935298442840576 48.5 L 88.5 0.5715211629867554 L 175.064697265625 48.5 Z" stroke="none"/>
          <path d="M 88.5 1.143054962158203 L 3.870620727539062 48 L 173.1293792724609 48 L 88.5 1.143054962158203 M 88.5 0 L 177 49 L 0 49 L 88.5 0 Z" stroke="none" fill="#020000"/>
        </g>
        <g id="Component_5_1" data-name="Component 5 – 1" transform="translate(92.5 2.5)">
          <g id="Polygon_9" data-name="Polygon 9">
            <path d="M 175.064697265625 48.5 L 1.935298442840576 48.5 L 88.5 0.5715211629867554 L 175.064697265625 48.5 Z" stroke="none"/>
            <path d="M 88.5 1.143054962158203 L 3.870620727539062 48 L 173.1293792724609 48 L 88.5 1.143054962158203 M 88.5 0 L 177 49 L 0 49 L 88.5 0 Z" stroke="none" fill="#020000"/>
          </g>
          <g id="Rectangle_8" data-name="Rectangle 8" transform="translate(0 49)" stroke="#020000" stroke-width="1">
            <rect width="177" height="72" stroke="none"/>
            <rect x="0.5" y="0.5" width="176" height="71" fill="none"/>
          </g>
          <g id="Polygon_10" data-name="Polygon 10" transform="translate(177 170) rotate(180)">
            <path d="M 175.064697265625 48.5 L 1.935298442840576 48.5 L 88.5 0.5715211629867554 L 175.064697265625 48.5 Z" stroke="none"/>
            <path d="M 88.5 1.143054962158203 L 3.870620727539062 48 L 173.1293792724609 48 L 88.5 1.143054962158203 M 88.5 0 L 177 49 L 0 49 L 88.5 0 Z" stroke="none" fill="#020000"/>
          </g>
          <g id="Polygon_11" data-name="Polygon 11">
            <path d="M 175.064697265625 48.5 L 1.935298442840576 48.5 L 88.5 0.5715211629867554 L 175.064697265625 48.5 Z" stroke="none"/>
            <path d="M 88.5 1.143054962158203 L 3.870620727539062 48 L 173.1293792724609 48 L 88.5 1.143054962158203 M 88.5 0 L 177 49 L 0 49 L 88.5 0 Z" stroke="none" fill="#020000"/>
          </g>
          <g id="Rectangle_9" data-name="Rectangle 9" transform="translate(0 49)" stroke="#020000" stroke-width="1">
            <rect width="177" height="72" stroke="none"/>
            <rect x="0.5" y="0.5" width="176" height="71" fill="none"/>
          </g>
          <g id="Polygon_12" data-name="Polygon 12" transform="translate(177 170) rotate(180)">
            <path d="M 175.064697265625 48.5 L 1.935298442840576 48.5 L 88.5 0.5715211629867554 L 175.064697265625 48.5 Z" stroke="none"/>
            <path d="M 88.5 1.143054962158203 L 3.870620727539062 48 L 173.1293792724609 48 L 88.5 1.143054962158203 M 88.5 0 L 177 49 L 0 49 L 88.5 0 Z" stroke="none" fill="#020000"/>
          </g>
        </g>
        <g id="Component_5_2" data-name="Component 5 – 2" transform="translate(182.5 126.5)">
          <g id="Polygon_9-2" data-name="Polygon 9">
            <path d="M 175.064697265625 48.5 L 1.935298442840576 48.5 L 88.5 0.5715211629867554 L 175.064697265625 48.5 Z" stroke="none"/>
            <path d="M 88.5 1.143054962158203 L 3.870620727539062 48 L 173.1293792724609 48 L 88.5 1.143054962158203 M 88.5 0 L 177 49 L 0 49 L 88.5 0 Z" stroke="none" fill="#020000"/>
          </g>
          <g id="Rectangle_8-2" data-name="Rectangle 8" transform="translate(0 49)" stroke="#020000" stroke-width="1">
            <rect width="177" height="72" stroke="none"/>
            <rect x="0.5" y="0.5" width="176" height="71" fill="none"/>
          </g>
          <g id="Polygon_10-2" data-name="Polygon 10" transform="translate(177 170) rotate(180)">
            <path d="M 175.064697265625 48.5 L 1.935298442840576 48.5 L 88.5 0.5715211629867554 L 175.064697265625 48.5 Z" stroke="none"/>
            <path d="M 88.5 1.143054962158203 L 3.870620727539062 48 L 173.1293792724609 48 L 88.5 1.143054962158203 M 88.5 0 L 177 49 L 0 49 L 88.5 0 Z" stroke="none" fill="#020000"/>
          </g>
          <g id="Polygon_11-2" data-name="Polygon 11">
            <path d="M 175.064697265625 48.5 L 1.935298442840576 48.5 L 88.5 0.5715211629867554 L 175.064697265625 48.5 Z" stroke="none"/>
            <path d="M 88.5 1.143054962158203 L 3.870620727539062 48 L 173.1293792724609 48 L 88.5 1.143054962158203 M 88.5 0 L 177 49 L 0 49 L 88.5 0 Z" stroke="none" fill="#020000"/>
          </g>
          <g id="Rectangle_9-2" data-name="Rectangle 9" transform="translate(0 49)" stroke="#020000" stroke-width="1">
            <rect width="177" height="72" stroke="none"/>
            <rect x="0.5" y="0.5" width="176" height="71" fill="none"/>
          </g>
          <g id="Polygon_12-2" data-name="Polygon 12" transform="translate(177 170) rotate(180)">
            <path d="M 175.064697265625 48.5 L 1.935298442840576 48.5 L 88.5 0.5715211629867554 L 175.064697265625 48.5 Z" stroke="none"/>
            <path d="M 88.5 1.143054962158203 L 3.870620727539062 48 L 173.1293792724609 48 L 88.5 1.143054962158203 M 88.5 0 L 177 49 L 0 49 L 88.5 0 Z" stroke="none" fill="#020000"/>
          </g>
        </g>
        <g id="Component_5_3" data-name="Component 5 – 3" transform="translate(2.5 126.5)">
          <g id="Polygon_9-3" data-name="Polygon 9">
            <path d="M 175.064697265625 48.5 L 1.935298442840576 48.5 L 88.5 0.5715211629867554 L 175.064697265625 48.5 Z" stroke="none"/>
            <path d="M 88.5 1.143054962158203 L 3.870620727539062 48 L 173.1293792724609 48 L 88.5 1.143054962158203 M 88.5 0 L 177 49 L 0 49 L 88.5 0 Z" stroke="none" fill="#020000"/>
          </g>
          <g id="Rectangle_8-3" data-name="Rectangle 8" transform="translate(0 49)" stroke="#020000" stroke-width="1">
            <rect width="177" height="72" stroke="none"/>
            <rect x="0.5" y="0.5" width="176" height="71" fill="none"/>
          </g>
          <g id="Polygon_10-3" data-name="Polygon 10" transform="translate(177 170) rotate(180)">
            <path d="M 175.064697265625 48.5 L 1.935298442840576 48.5 L 88.5 0.5715211629867554 L 175.064697265625 48.5 Z" stroke="none"/>
            <path d="M 88.5 1.143054962158203 L 3.870620727539062 48 L 173.1293792724609 48 L 88.5 1.143054962158203 M 88.5 0 L 177 49 L 0 49 L 88.5 0 Z" stroke="none" fill="#020000"/>
          </g>
          <g id="Polygon_11-3" data-name="Polygon 11">
            <path d="M 175.064697265625 48.5 L 1.935298442840576 48.5 L 88.5 0.5715211629867554 L 175.064697265625 48.5 Z" stroke="none"/>
            <path d="M 88.5 1.143054962158203 L 3.870620727539062 48 L 173.1293792724609 48 L 88.5 1.143054962158203 M 88.5 0 L 177 49 L 0 49 L 88.5 0 Z" stroke="none" fill="#020000"/>
          </g>
          <g id="Rectangle_9-3" data-name="Rectangle 9" transform="translate(0 49)" stroke="#020000" stroke-width="1">
            <rect width="177" height="72" stroke="none"/>
            <rect x="0.5" y="0.5" width="176" height="71" fill="none"/>
          </g>
          <g id="Polygon_12-3" data-name="Polygon 12" transform="translate(177 170) rotate(180)">
            <path d="M 175.064697265625 48.5 L 1.935298442840576 48.5 L 88.5 0.5715211629867554 L 175.064697265625 48.5 Z" stroke="none"/>
            <path d="M 88.5 1.143054962158203 L 3.870620727539062 48 L 173.1293792724609 48 L 88.5 1.143054962158203 M 88.5 0 L 177 49 L 0 49 L 88.5 0 Z" stroke="none" fill="#020000"/>
          </g>
        </g>
        <g id="Group_3" data-name="Group 3" opacity="0.734">
          <path id="Path_16" data-name="Path 16" d="M32,18" transform="translate(149 156)" fill="none" stroke="#fff" stroke-width="2.72"/>
          <line id="Line_15" data-name="Line 15" x2="92" y2="51" transform="translate(90 124)" fill="none" stroke="#fff" stroke-width="3.5" opacity="0.997"/>
          <line id="Line_16" data-name="Line 16" y1="51" x2="92" transform="translate(180 124)" fill="none" stroke="#fff" stroke-width="3.5" opacity="0.997"/>
          <line id="Line_17" data-name="Line 17" x2="92" y2="51" transform="translate(90 124)" fill="none" stroke="#5ff736" stroke-width="3.5" opacity="0.997"/>
          <line id="Line_18" data-name="Line 18" y1="76" transform="translate(181 174)" fill="none" stroke="#5ff736" stroke-width="3.5" opacity="0.997"/>
          <line id="Line_19" data-name="Line 19" y1="51" x2="92" transform="translate(180 124)" fill="none" stroke="#fff" stroke-width="3.5" opacity="0.997"/>
          <line id="Line_20" data-name="Line 20" y1="75" transform="translate(271 50)" fill="none" stroke="#5ff736" stroke-width="3.5" opacity="0.997"/>
          <path id="Path_49" data-name="Path 49" d="M0,0,92,51" transform="translate(180)" fill="#f7f7f7" stroke="#5ff736" stroke-width="3.5" opacity="0.997"/>
          <line id="Line_22" data-name="Line 22" y1="51" x2="92" transform="translate(90)" fill="none" stroke="#5ff736" stroke-width="3.5" opacity="0.997"/>
          <line id="Line_23" data-name="Line 23" y1="75" transform="translate(91 50)" fill="none" stroke="#fff" stroke-width="3.5" opacity="0.997"/>
          <line id="Line_24" data-name="Line 24" y1="51" x2="92" transform="translate(180 124)" fill="none" stroke="#5ff736" stroke-width="3.5" opacity="0.997"/>
          <line id="Line_25" data-name="Line 25" y1="49" x2="90" transform="translate(1 125)" fill="none" stroke="#5ff736" stroke-width="3.5" opacity="0.997"/>
          <line id="Line_26" data-name="Line 26" y1="75" transform="translate(91 50)" fill="none" stroke="#5ff736" stroke-width="3.5" opacity="0.997"/>
          <line id="Line_29" data-name="Line 29" y1="76" transform="translate(1 173)" fill="none" stroke="#5ff736" stroke-width="3.5" opacity="0.997"/>
          <line id="Line_30" data-name="Line 30" x1="90" y1="50" transform="translate(0 248)" fill="none" stroke="#5ff736" stroke-width="3.5" opacity="0.997"/>
          <line id="Line_31" data-name="Line 31" y1="51" x2="93" transform="translate(89 248)" fill="none" stroke="#fff" stroke-width="3.5" opacity="0.997"/>
          <line id="Line_32" data-name="Line 32" y1="51" x2="93" transform="translate(89 248)" fill="none" stroke="#5ff736" stroke-width="3.5" opacity="0.997"/>
          <line id="Line_33" data-name="Line 33" x2="91" y2="50" transform="translate(180 248)" fill="none" stroke="#5ff736" stroke-width="3.5" opacity="0.997"/>
          <line id="Line_34" data-name="Line 34" y1="50" x2="92" transform="translate(270 248)" fill="none" stroke="#5ff736" stroke-width="3.5" opacity="0.997"/>
          <line id="Line_35" data-name="Line 35" y1="77" transform="translate(361 173)" fill="none" stroke="#5ff736" stroke-width="3.5" opacity="0.997"/>
          <line id="Line_36" data-name="Line 36" x1="91" y1="51" transform="translate(270 124)" fill="none" stroke="#5ff736" stroke-width="3.5" opacity="0.997"/>
        </g>
        <text id="G" transform="translate(179.5 129.5)" fill="#5ff736" font-size="120" font-family="Georgia-Bold, Georgia" font-weight="700" letter-spacing="0.01em"><tspan x="-48.428" y="0">G</tspan></text>
        <text id="P" transform="translate(91.5 253.5)" fill="#5ff736" font-size="120" font-family="Georgia-Bold, Georgia" font-weight="700" letter-spacing="0.01em"><tspan x="-42.07" y="0">P</tspan></text>
        <text id="T" transform="translate(271.5 253.5)" fill="#5ff736" font-size="120" font-family="Georgia-Bold, Georgia" font-weight="700" letter-spacing="0.01em"><tspan x="-41.045" y="0">T</tspan></text>
      </g>
    </g>
  </g>
</svg>
